<svg id="_x31_" enable-background="new 0 0 24 24" height="512" viewBox="0 0 24 24" width="512" xmlns="http://www.w3.org/2000/svg"><g><g><g><path d="m7.5 10.5c-.276 0-.5-.224-.5-.5v-5c0-.551-.449-1-1-1s-1 .449-1 1v5c0 .276-.224.5-.5.5s-.5-.224-.5-.5v-5c0-1.103.897-2 2-2s2 .897 2 2v5c0 .276-.224.5-.5.5z"/></g></g><g><g><path d="m10.5 11c-.276 0-.5-.224-.5-.5v-7.5c0-.551-.449-1-1-1s-1 .449-1 1v7.5c0 .276-.224.5-.5.5s-.5-.224-.5-.5v-7.5c0-1.103.897-2 2-2s2 .897 2 2v7.5c0 .276-.224.5-.5.5z"/></g></g><g><g><path d="m13.5 11c-.276 0-.5-.224-.5-.5v-8.5c0-.551-.449-1-1-1s-1 .449-1 1v8.5c0 .276-.224.5-.5.5s-.5-.224-.5-.5v-8.5c0-1.103.897-2 2-2s2 .897 2 2v8.5c0 .276-.224.5-.5.5z"/></g></g><g><g><path d="m16.5 11.17c-.276 0-.5-.224-.5-.5v-7.67c0-.551-.449-1-1-1s-1 .449-1 1v7.5c0 .276-.224.5-.5.5s-.5-.224-.5-.5v-7.5c0-1.103.897-2 2-2s2 .897 2 2v7.67c0 .276-.224.5-.5.5z"/></g></g><g><g><path d="m10.5 22c-1.744 0-3.376-.678-4.595-1.908-1.227-1.216-1.905-2.848-1.905-4.592v-5.78c0-.276.224-.5.5-.5s.5.224.5.5v5.78c0 1.475.572 2.855 1.612 3.885 1.033 1.043 2.413 1.615 3.888 1.615 1.933 0 3.746-1.036 4.732-2.703 1.385-2.34 2.799-4.222 4.324-5.75.116-.116.195-.221.242-.32.14-.243.202-.483.202-.737 0-.402-.156-.776-.439-1.052-.279-.286-.635-.438-1.011-.438-.433-.021-.81.129-1.102.429l-.594.594c-.195.195-.512.195-.707 0s-.195-.512 0-.707l.59-.59c.486-.498 1.167-.762 1.841-.726h.003c.62 0 1.229.259 1.688.73.468.458.731 1.086.731 1.76 0 .431-.11.847-.318 1.203-.076.165-.219.361-.417.56-1.465 1.469-2.83 3.286-4.171 5.553-1.167 1.97-3.31 3.194-5.594 3.194z"/></g></g><g><g><path d="m13.5 24h-6c-.827 0-1.5-.673-1.5-1.5v-2.54c0-.276.224-.5.5-.5s.5.224.5.5v2.54c0 .276.224.5.5.5h6c.276 0 .5-.224.5-.5v-2.54c0-.276.224-.5.5-.5s.5.224.5.5v2.54c0 .827-.673 1.5-1.5 1.5z"/></g></g></g></svg>